<mxfile host="app.diagrams.net" agent="Mozilla/5.0 (Macintosh; Intel Mac OS X 10_15_7) AppleWebKit/537.36 (KHTML, like Gecko) Chrome/128.0.0.0 Safari/537.36" version="24.7.12">
  <diagram name="PÃ¡gina-1" id="Pe-gqurT4FuyS-C2Enov">
    <mxGraphModel dx="2210" dy="721" grid="1" gridSize="10" guides="1" tooltips="1" connect="1" arrows="1" fold="1" page="1" pageScale="1" pageWidth="827" pageHeight="1169" math="0" shadow="0">
      <root>
        <mxCell id="0" />
        <mxCell id="1" parent="0" />
        <mxCell id="4KLCdcsEvE62f66AvS_a-39" value="" style="rounded=0;whiteSpace=wrap;html=1;dashed=1;" vertex="1" parent="1">
          <mxGeometry x="-223" y="195" width="1080" height="540" as="geometry" />
        </mxCell>
        <mxCell id="4KLCdcsEvE62f66AvS_a-38" value="" style="rounded=1;whiteSpace=wrap;html=1;" vertex="1" parent="1">
          <mxGeometry x="-193" y="235" width="1020" height="470" as="geometry" />
        </mxCell>
        <mxCell id="4KLCdcsEvE62f66AvS_a-16" value="" style="rounded=1;whiteSpace=wrap;html=1;" vertex="1" parent="1">
          <mxGeometry x="280" y="275" width="520" height="390" as="geometry" />
        </mxCell>
        <mxCell id="4KLCdcsEvE62f66AvS_a-15" value="" style="rounded=1;whiteSpace=wrap;html=1;" vertex="1" parent="1">
          <mxGeometry x="60" y="275" width="200" height="390" as="geometry" />
        </mxCell>
        <mxCell id="4KLCdcsEvE62f66AvS_a-14" value="" style="rounded=1;whiteSpace=wrap;html=1;" vertex="1" parent="1">
          <mxGeometry x="-160" y="270" width="200" height="390" as="geometry" />
        </mxCell>
        <mxCell id="4KLCdcsEvE62f66AvS_a-20" style="edgeStyle=orthogonalEdgeStyle;rounded=0;orthogonalLoop=1;jettySize=auto;html=1;exitX=1;exitY=0.5;exitDx=0;exitDy=0;entryX=0;entryY=0.5;entryDx=0;entryDy=0;startArrow=classic;startFill=1;" edge="1" parent="1" source="4KLCdcsEvE62f66AvS_a-1" target="4KLCdcsEvE62f66AvS_a-4">
          <mxGeometry relative="1" as="geometry" />
        </mxCell>
        <mxCell id="4KLCdcsEvE62f66AvS_a-1" value="Activity" style="rounded=1;whiteSpace=wrap;html=1;fillColor=#e1d5e7;strokeColor=#9673a6;" vertex="1" parent="1">
          <mxGeometry x="-120" y="330" width="120" height="60" as="geometry" />
        </mxCell>
        <mxCell id="4KLCdcsEvE62f66AvS_a-21" style="edgeStyle=orthogonalEdgeStyle;rounded=0;orthogonalLoop=1;jettySize=auto;html=1;exitX=1;exitY=0.5;exitDx=0;exitDy=0;entryX=0;entryY=0.5;entryDx=0;entryDy=0;startArrow=classic;startFill=1;" edge="1" parent="1" source="4KLCdcsEvE62f66AvS_a-2" target="4KLCdcsEvE62f66AvS_a-5">
          <mxGeometry relative="1" as="geometry" />
        </mxCell>
        <mxCell id="4KLCdcsEvE62f66AvS_a-2" value="Fragment" style="rounded=1;whiteSpace=wrap;html=1;fillColor=#e1d5e7;strokeColor=#9673a6;" vertex="1" parent="1">
          <mxGeometry x="-120" y="440" width="120" height="60" as="geometry" />
        </mxCell>
        <mxCell id="4KLCdcsEvE62f66AvS_a-22" style="edgeStyle=orthogonalEdgeStyle;rounded=0;orthogonalLoop=1;jettySize=auto;html=1;exitX=1;exitY=0.5;exitDx=0;exitDy=0;entryX=0;entryY=0.5;entryDx=0;entryDy=0;startArrow=classic;startFill=1;" edge="1" parent="1" source="4KLCdcsEvE62f66AvS_a-3" target="4KLCdcsEvE62f66AvS_a-6">
          <mxGeometry relative="1" as="geometry" />
        </mxCell>
        <mxCell id="4KLCdcsEvE62f66AvS_a-3" value="View" style="rounded=1;whiteSpace=wrap;html=1;fillColor=#e1d5e7;strokeColor=#9673a6;" vertex="1" parent="1">
          <mxGeometry x="-120" y="554.5" width="120" height="60" as="geometry" />
        </mxCell>
        <mxCell id="4KLCdcsEvE62f66AvS_a-23" style="edgeStyle=orthogonalEdgeStyle;rounded=0;orthogonalLoop=1;jettySize=auto;html=1;exitX=1;exitY=0.5;exitDx=0;exitDy=0;" edge="1" parent="1" source="4KLCdcsEvE62f66AvS_a-4" target="4KLCdcsEvE62f66AvS_a-7">
          <mxGeometry relative="1" as="geometry" />
        </mxCell>
        <mxCell id="4KLCdcsEvE62f66AvS_a-4" value="ViewModel" style="rounded=1;whiteSpace=wrap;html=1;fillColor=#d5e8d4;strokeColor=#82b366;" vertex="1" parent="1">
          <mxGeometry x="100" y="330" width="120" height="60" as="geometry" />
        </mxCell>
        <mxCell id="4KLCdcsEvE62f66AvS_a-24" style="edgeStyle=orthogonalEdgeStyle;rounded=0;orthogonalLoop=1;jettySize=auto;html=1;exitX=1;exitY=0.5;exitDx=0;exitDy=0;" edge="1" parent="1" source="4KLCdcsEvE62f66AvS_a-5" target="4KLCdcsEvE62f66AvS_a-8">
          <mxGeometry relative="1" as="geometry" />
        </mxCell>
        <mxCell id="4KLCdcsEvE62f66AvS_a-5" value="ViewModel" style="rounded=1;whiteSpace=wrap;html=1;fillColor=#d5e8d4;strokeColor=#82b366;" vertex="1" parent="1">
          <mxGeometry x="100" y="440" width="120" height="60" as="geometry" />
        </mxCell>
        <mxCell id="4KLCdcsEvE62f66AvS_a-25" style="edgeStyle=orthogonalEdgeStyle;rounded=0;orthogonalLoop=1;jettySize=auto;html=1;exitX=1;exitY=0.5;exitDx=0;exitDy=0;" edge="1" parent="1" source="4KLCdcsEvE62f66AvS_a-6" target="4KLCdcsEvE62f66AvS_a-9">
          <mxGeometry relative="1" as="geometry" />
        </mxCell>
        <mxCell id="4KLCdcsEvE62f66AvS_a-6" value="ViewModel" style="rounded=1;whiteSpace=wrap;html=1;fillColor=#d5e8d4;strokeColor=#82b366;" vertex="1" parent="1">
          <mxGeometry x="100" y="555" width="120" height="60" as="geometry" />
        </mxCell>
        <mxCell id="4KLCdcsEvE62f66AvS_a-7" value="UseCase" style="rounded=1;whiteSpace=wrap;html=1;fillColor=#1ba1e2;strokeColor=#006EAF;fontColor=#ffffff;" vertex="1" parent="1">
          <mxGeometry x="300" y="330" width="120" height="60" as="geometry" />
        </mxCell>
        <mxCell id="4KLCdcsEvE62f66AvS_a-8" value="UseCase" style="rounded=1;whiteSpace=wrap;html=1;fillColor=#1ba1e2;strokeColor=#006EAF;fontColor=#ffffff;" vertex="1" parent="1">
          <mxGeometry x="300" y="440" width="120" height="60" as="geometry" />
        </mxCell>
        <mxCell id="4KLCdcsEvE62f66AvS_a-9" value="UseCase" style="rounded=1;whiteSpace=wrap;html=1;fillColor=#1ba1e2;strokeColor=#006EAF;fontColor=#ffffff;" vertex="1" parent="1">
          <mxGeometry x="300" y="555" width="120" height="60" as="geometry" />
        </mxCell>
        <mxCell id="4KLCdcsEvE62f66AvS_a-10" value="Repository" style="rounded=1;whiteSpace=wrap;html=1;fillColor=#647687;strokeColor=#314354;fontColor=#ffffff;" vertex="1" parent="1">
          <mxGeometry x="480" y="330" width="120" height="290" as="geometry" />
        </mxCell>
        <mxCell id="4KLCdcsEvE62f66AvS_a-11" value="Remote" style="rounded=1;whiteSpace=wrap;html=1;fillColor=#647687;strokeColor=#314354;fontColor=#ffffff;" vertex="1" parent="1">
          <mxGeometry x="660" y="330" width="120" height="60" as="geometry" />
        </mxCell>
        <mxCell id="4KLCdcsEvE62f66AvS_a-12" value="Local" style="rounded=1;whiteSpace=wrap;html=1;fillColor=#647687;strokeColor=#314354;fontColor=#ffffff;" vertex="1" parent="1">
          <mxGeometry x="660" y="440" width="120" height="60" as="geometry" />
        </mxCell>
        <mxCell id="4KLCdcsEvE62f66AvS_a-13" value="Cache" style="rounded=1;whiteSpace=wrap;html=1;fillColor=#647687;strokeColor=#314354;fontColor=#ffffff;" vertex="1" parent="1">
          <mxGeometry x="660" y="554.5" width="120" height="60" as="geometry" />
        </mxCell>
        <mxCell id="4KLCdcsEvE62f66AvS_a-17" value="&lt;font style=&quot;font-size: 18px;&quot;&gt;&lt;b&gt;View&lt;/b&gt;&lt;/font&gt;" style="text;html=1;align=center;verticalAlign=middle;whiteSpace=wrap;rounded=0;" vertex="1" parent="1">
          <mxGeometry x="-90" y="285" width="60" height="30" as="geometry" />
        </mxCell>
        <mxCell id="4KLCdcsEvE62f66AvS_a-18" value="&lt;font style=&quot;font-size: 18px;&quot;&gt;&lt;b&gt;ViewModel&lt;/b&gt;&lt;/font&gt;" style="text;html=1;align=center;verticalAlign=middle;whiteSpace=wrap;rounded=0;" vertex="1" parent="1">
          <mxGeometry x="130" y="285" width="60" height="30" as="geometry" />
        </mxCell>
        <mxCell id="4KLCdcsEvE62f66AvS_a-19" value="&lt;font style=&quot;font-size: 18px;&quot;&gt;&lt;b&gt;Model&lt;/b&gt;&lt;/font&gt;" style="text;html=1;align=center;verticalAlign=middle;whiteSpace=wrap;rounded=0;" vertex="1" parent="1">
          <mxGeometry x="510" y="285" width="60" height="30" as="geometry" />
        </mxCell>
        <mxCell id="4KLCdcsEvE62f66AvS_a-28" style="edgeStyle=orthogonalEdgeStyle;rounded=0;orthogonalLoop=1;jettySize=auto;html=1;exitX=1;exitY=0.5;exitDx=0;exitDy=0;entryX=0;entryY=0.879;entryDx=0;entryDy=0;entryPerimeter=0;startArrow=classic;startFill=1;" edge="1" parent="1" source="4KLCdcsEvE62f66AvS_a-9" target="4KLCdcsEvE62f66AvS_a-10">
          <mxGeometry relative="1" as="geometry" />
        </mxCell>
        <mxCell id="4KLCdcsEvE62f66AvS_a-30" style="edgeStyle=orthogonalEdgeStyle;rounded=0;orthogonalLoop=1;jettySize=auto;html=1;exitX=1;exitY=0.5;exitDx=0;exitDy=0;entryX=-0.002;entryY=0.106;entryDx=0;entryDy=0;entryPerimeter=0;startArrow=classic;startFill=1;" edge="1" parent="1" source="4KLCdcsEvE62f66AvS_a-7" target="4KLCdcsEvE62f66AvS_a-10">
          <mxGeometry relative="1" as="geometry" />
        </mxCell>
        <mxCell id="4KLCdcsEvE62f66AvS_a-33" style="edgeStyle=orthogonalEdgeStyle;rounded=0;orthogonalLoop=1;jettySize=auto;html=1;exitX=1;exitY=0.5;exitDx=0;exitDy=0;entryX=-0.008;entryY=0.481;entryDx=0;entryDy=0;entryPerimeter=0;startArrow=classic;startFill=1;" edge="1" parent="1" source="4KLCdcsEvE62f66AvS_a-8" target="4KLCdcsEvE62f66AvS_a-10">
          <mxGeometry relative="1" as="geometry" />
        </mxCell>
        <mxCell id="4KLCdcsEvE62f66AvS_a-34" style="edgeStyle=orthogonalEdgeStyle;rounded=0;orthogonalLoop=1;jettySize=auto;html=1;exitX=0;exitY=0.5;exitDx=0;exitDy=0;entryX=1.008;entryY=0.103;entryDx=0;entryDy=0;entryPerimeter=0;startArrow=classic;startFill=1;" edge="1" parent="1" source="4KLCdcsEvE62f66AvS_a-11" target="4KLCdcsEvE62f66AvS_a-10">
          <mxGeometry relative="1" as="geometry" />
        </mxCell>
        <mxCell id="4KLCdcsEvE62f66AvS_a-35" style="edgeStyle=orthogonalEdgeStyle;rounded=0;orthogonalLoop=1;jettySize=auto;html=1;exitX=0;exitY=0.5;exitDx=0;exitDy=0;entryX=0.995;entryY=0.482;entryDx=0;entryDy=0;entryPerimeter=0;startArrow=classic;startFill=1;" edge="1" parent="1" source="4KLCdcsEvE62f66AvS_a-12" target="4KLCdcsEvE62f66AvS_a-10">
          <mxGeometry relative="1" as="geometry" />
        </mxCell>
        <mxCell id="4KLCdcsEvE62f66AvS_a-37" style="edgeStyle=orthogonalEdgeStyle;rounded=0;orthogonalLoop=1;jettySize=auto;html=1;exitX=0;exitY=0.5;exitDx=0;exitDy=0;entryX=1.002;entryY=0.877;entryDx=0;entryDy=0;entryPerimeter=0;startArrow=classic;startFill=1;" edge="1" parent="1" source="4KLCdcsEvE62f66AvS_a-13" target="4KLCdcsEvE62f66AvS_a-10">
          <mxGeometry relative="1" as="geometry" />
        </mxCell>
      </root>
    </mxGraphModel>
  </diagram>
</mxfile>
